# xmcd
#
# Track frame offsets:
#	150
#	41555
#	81724
#	108323
#	141274
#	147519
#	163404
#	197754
#	215457
#	247009
#
# Disc length: 4525 seconds
#
# Revision: 2
# Processed by: cddbd v1.5.2PL0 Copyright (c) Steve Scherf et al.
# Submitted via: audiograbber 1.83.01
#
DISCID=a011ab0a
DTITLE=Grateful Dead - 72-11-15 Oklahoma City Music Hall, Oklahoma City OK
DYEAR=1900
DGENRE=
TTITLE0=Mississippi Half-Step
TTITLE1=Sugar Magnolia
TTITLE2=One More Saturday Night
TTITLE3=Uncle John's Band
TTITLE4=Tuning
TTITLE5=Promised Land
TTITLE6=Ramble On Rose
TTITLE7=Mexicali Blues
TTITLE8=Brokedown Palace
TTITLE9=Playing In The Band
EXTD=
EXTT0=
EXTT1=
EXTT2=
EXTT3=
EXTT4=
EXTT5=
EXTT6=
EXTT7=
EXTT8=
EXTT9=
PLAYORDER=
